<?xml version="1.0" encoding="UTF-8"?><svg id="uuid-1868ef0a-238a-47c3-abbf-c7b208b76e30" xmlns="http://www.w3.org/2000/svg" xmlns:xlink="http://www.w3.org/1999/xlink" viewBox="0 0 1280 720"><defs><clipPath id="uuid-2e32bfb2-05a0-438b-b8cd-c91bd15db6ed"><rect y="0" width="1280" height="720" fill="none"/></clipPath><linearGradient id="uuid-59360a40-144a-436d-9086-e8285d9b6fc0" x1="758" y1="624.96" x2="758" y2="424.96" gradientTransform="translate(0 719.46) scale(1 -1)" gradientUnits="userSpaceOnUse"><stop offset="0" stop-color="#ffdd9c"/><stop offset=".5" stop-color="#ffd78e"/><stop offset="1" stop-color="#ffd479"/></linearGradient><linearGradient id="uuid-10bd371e-5689-42e3-9f20-ce320b986978" x1="767.5" y1="294.96" x2="767.5" y2="63.96" gradientTransform="translate(0 719.46) scale(1 -1)" gradientUnits="userSpaceOnUse"><stop offset="0" stop-color="#ffdd9c"/><stop offset=".5" stop-color="#ffd78e"/><stop offset="1" stop-color="#ffd479"/></linearGradient><linearGradient id="uuid-0392a3e0-4fef-477a-b587-f4ce44528526" x1="403" y1="624.96" x2="403" y2="424.96" gradientTransform="translate(0 719.46) scale(1 -1)" gradientUnits="userSpaceOnUse"><stop offset="0" stop-color="#ffdd9c"/><stop offset=".5" stop-color="#ffd78e"/><stop offset="1" stop-color="#ffd479"/></linearGradient></defs><g clip-path="url(#uuid-2e32bfb2-05a0-438b-b8cd-c91bd15db6ed)"><rect y="0" width="1280" height="720" fill="#fff"/><path d="m642.5,127.83c0-18.41,14.92-33.33,33.33-33.33h164.33c18.41,0,33.33,14.92,33.33,33.33v133.33c0,18.41-14.92,33.33-33.33,33.33h-164.33c-18.41,0-33.33-14.92-33.33-33.33V127.83Z" fill="url(#uuid-59360a40-144a-436d-9086-e8285d9b6fc0)" fill-rule="evenodd" stroke="#ffc000" stroke-miterlimit="8" stroke-width=".67"/><g isolation="isolate"><text transform="translate(676.79 125.65)" font-family="ArialMT, Arial" font-size="20" isolation="isolate"><tspan x="0" y="0">Forms as a Cloud </tspan></text><text transform="translate(658.32 149.65)" font-family="YuGothic-Medium, &apos;Yu Gothic&apos;" font-size="20" font-weight="500" isolation="isolate"><tspan x="0" y="0" letter-spacing="-.04em">サ</tspan><tspan x="19.22" y="0" letter-spacing="-.09em">ー</tspan><tspan x="37.41" y="0" letter-spacing="-.06em">ビ</tspan><tspan x="56.26" y="0" letter-spacing="-.04em">ス</tspan><tspan x="75.54" y="0" letter-spacing="-.09em">サ</tspan><tspan x="93.75" y="0" letter-spacing="-.14em">ン</tspan><tspan x="110.87" y="0" letter-spacing="-.1em">ド</tspan><tspan x="128.96" y="0" letter-spacing="-.14em">ボ</tspan><tspan x="146.19" y="0" letter-spacing="-.17em">ッ</tspan><tspan x="162.7" y="0" letter-spacing="-.11em">ク</tspan><tspan x="180.48" y="0" letter-spacing="-.03em">ス</tspan><tspan x="199.91" y="0"> </tspan></text></g><path d="m665.5,173.5c0-8.84,7.16-16,16-16h152c8.84,0,16,7.16,16,16v64c0,8.84-7.16,16-16,16h-152c-8.84,0-16-7.16-16-16v-64Z" fill="#ed7d31" fill-rule="evenodd" stroke="#ffc000" stroke-miterlimit="8" stroke-width=".67"/><g isolation="isolate"><text transform="translate(701.75 178)" font-size="13" font-weight="700" isolation="isolate"><tspan font-family="YuGothic-Bold, &apos;Yu Gothic&apos;"><tspan x="0" y="0" letter-spacing="-.06em">ア</tspan><tspan x="12.27" y="0" letter-spacing="-.04em">ダ</tspan><tspan x="24.71" y="0" letter-spacing="-.08em">プ</tspan><tspan x="36.69" y="0" letter-spacing="-.19em">テ</tspan><tspan x="47.17" y="0" letter-spacing="-.2em">ィ</tspan><tspan x="57.52" y="0" letter-spacing="-.05em">ブ</tspan><tspan x="69.91" y="0" letter-spacing="-.14em">フ</tspan><tspan x="81.03" y="0" letter-spacing="-.15em">ォ</tspan><tspan x="92.05" y="0" letter-spacing="-.13em">ー</tspan><tspan x="103.38" y="0" letter-spacing="-.04em">ム</tspan><tspan x="115.9" y="0"> </tspan></tspan><tspan x="24.9" y="15.6" font-family="Arial-BoldMT, Arial">V2</tspan><tspan x="40.8" y="15.6" font-family="YuGothic-Bold, &apos;Yu Gothic&apos;" letter-spacing="-.07em"> </tspan><tspan x="43.59" y="15.6" font-family="YuGothic-Bold, &apos;Yu Gothic&apos;" letter-spacing="-.11em">コ</tspan><tspan x="55.11" y="15.6" font-family="YuGothic-Bold, &apos;Yu Gothic&apos;" letter-spacing="-.08em">ン</tspan><tspan x="67.05" y="15.6" font-family="YuGothic-Bold, &apos;Yu Gothic&apos;" letter-spacing="-.07em">テ</tspan><tspan x="79.2" y="15.6" font-family="YuGothic-Bold, &apos;Yu Gothic&apos;" letter-spacing="-.03em">ナ</tspan><tspan x="91.77" y="15.6" xml:space="preserve" font-family="YuGothic-Bold, &apos;Yu Gothic&apos;">   </tspan></text></g><path d="m678.5,271c0-1.93,1.57-3.5,3.5-3.5h171c1.93,0,3.5,1.57,3.5,3.5v14c0,1.93-1.57,3.5-3.5,3.5h-171c-1.93,0-3.5-1.57-3.5-3.5v-14Z" fill="#4472c4" fill-rule="evenodd" stroke="#2f528f" stroke-miterlimit="8" stroke-width="1.33"/><text transform="translate(718.21 282)" fill="#fff" font-size="13" isolation="isolate"><tspan x="0" y="0" font-family="ArialMT, Arial">API </tspan><tspan x="24.51" y="0" font-family="YuGothic-Regular, &apos;Yu Gothic&apos;" letter-spacing="0em">の</tspan><tspan x="37.48" y="0" font-family="YuGothic-Regular, &apos;Yu Gothic&apos;">取</tspan><tspan x="50.48" y="0" font-family="YuGothic-Regular, &apos;Yu Gothic&apos;" letter-spacing="-.06em">得</tspan><tspan x="62.65" y="0" font-family="YuGothic-Regular, &apos;Yu Gothic&apos;" letter-spacing="-.1em">と</tspan><tspan x="74.39" y="0" font-family="YuGothic-Regular, &apos;Yu Gothic&apos;">送信</tspan></text><path d="m649.5,463c0-21.26,17.24-38.5,38.5-38.5h159c21.26,0,38.5,17.24,38.5,38.5v154c0,21.26-17.24,38.5-38.5,38.5h-159c-21.26,0-38.5-17.24-38.5-38.5v-154Z" fill="url(#uuid-10bd371e-5689-42e3-9f20-ce320b986978)" fill-rule="evenodd" stroke="#ffc000" stroke-miterlimit="8" stroke-width=".67"/><g isolation="isolate"><path d="m710.25,439.93c1.1.1,2.38.16,3.84.16h7.08c.45,0,.78-.06,1.01-.18.07-.05.15-.07.23-.07.1,0,.19.03.28.09.33.23.63.51.9.82.07.1.11.19.11.28,0,.12-.06.23-.17.33-.16.14-.3.36-.44.68-.94,2.47-2.25,4.66-3.93,6.55-1.81,2.03-3.79,3.64-5.94,4.81-.12.08-.23.12-.34.12-.13,0-.24-.05-.33-.16-.27-.27-.62-.5-1.04-.68,1.54-.76,2.85-1.59,3.95-2.48.83-.67,1.67-1.49,2.52-2.46,1.72-1.93,2.97-4.06,3.76-6.39h-7.67c-1.16,0-2.28.04-3.36.13h-.07c-.16,0-.26-.11-.29-.32,0-.05-.02-.27-.05-.64-.03-.27-.04-.47-.05-.6Z"/><path d="m739.87,450.38h-8.73v1.36c0,.13-.02.21-.06.24-.03.03-.1.05-.21.06h-.63c-.12,0-.22,0-.3,0-.19-.02-.28-.11-.28-.26.05-1.13.08-2.55.08-4.28v-3.94c0-1.41-.01-2.48-.04-3.2,0-.14.07-.21.21-.21.68.03,1.76.04,3.22.04h4.4c1.67,0,2.85-.01,3.54-.04.16,0,.23.09.23.28-.03,1.32-.04,2.37-.04,3.15v4.01c0,.92.03,2.23.1,3.95,0,.18-.08.27-.25.27h-1.04c-.13,0-.2-.08-.2-.25v-1.18Zm0-1.28v-7.64h-8.75v7.64h8.75Z"/><path d="m746.67,440.55c.33-.4.59-.71.78-.92.06-.07.13-.11.2-.11.04,0,.1.02.17.06,1.27.71,2.47,1.6,3.6,2.67.08.08.12.16.12.21,0,.05-.02.1-.06.17-.24.36-.47.64-.68.86-.07.08-.12.12-.17.12-.04,0-.09-.03-.16-.1-1.19-1.17-2.45-2.15-3.8-2.96Zm.48,10.5c.7-.2,1.4-.48,2.1-.82,2.25-1.19,4.18-2.43,5.78-3.72,2.29-1.88,4.09-3.67,5.4-5.38.06.44.18.88.34,1.32.04.1.07.2.07.27,0,.12-.07.27-.21.43-1.21,1.43-2.83,2.97-4.85,4.6-1.62,1.3-3.62,2.6-6.01,3.91-.44.26-.81.52-1.09.77-.1.09-.19.14-.27.14s-.17-.05-.26-.16c-.35-.36-.67-.82-.99-1.36Z"/><path d="m769.15,443.24c2.34.67,4.51,1.6,6.51,2.78.12.05.18.12.18.21,0,.03,0,.07-.03.12-.14.36-.3.68-.48.98-.08.1-.15.15-.21.15-.05,0-.1-.02-.18-.07-1.84-1.2-3.78-2.1-5.82-2.68v4.64c0,.51,0,1.22.02,2.15.02,1.17.03,1.81.03,1.93,0,.03,0,.05,0,.07,0,.12-.09.19-.26.19-.14.01-.3.02-.5.02s-.38,0-.52-.02c-.19,0-.28-.09-.28-.27.06-1.15.09-2.5.09-4.06v-8.88c0-1.43-.08-2.49-.22-3.2.79.07,1.34.15,1.65.26.16.03.23.11.23.23,0,.07-.03.19-.09.36-.09.26-.14,1-.14,2.22v2.88Z"/><path d="m787.89,441.91v7.52h3.48c.75,0,1.98-.03,3.68-.09h.07c.14,0,.21.08.21.24v.93c0,.17-.09.25-.28.25-2.19-.04-3.41-.06-3.66-.06h-8.46c-.68,0-1.76.03-3.24.1-.18,0-.29-.1-.32-.3-.07-.46-.1-.85-.1-1.17.87.07,2.09.1,3.66.1h3.5v-7.52h-1.96c-.98,0-2,.04-3.04.11h-.05c-.09,0-.16-.1-.2-.3-.05-.35-.08-.75-.08-1.18.9.07,2,.1,3.3.1h5.19c1.09,0,2.26-.02,3.5-.07h.07c.09,0,.14.07.14.21v.97c0,.17-.08.25-.22.25-1.12-.05-2.27-.08-3.46-.08h-1.72Z"/><path d="m798.72,440.55c.33-.4.59-.71.78-.92.06-.07.13-.11.2-.11.04,0,.1.02.17.06,1.27.71,2.47,1.6,3.6,2.67.08.08.12.16.12.21,0,.05-.02.1-.06.17-.24.36-.47.64-.68.86-.07.08-.12.12-.17.12-.04,0-.09-.03-.16-.1-1.19-1.17-2.45-2.15-3.8-2.96Zm.48,10.5c.7-.2,1.4-.48,2.1-.82,2.25-1.19,4.18-2.43,5.78-3.72,2.29-1.88,4.09-3.67,5.4-5.38.06.44.18.88.34,1.32.04.1.07.2.07.27,0,.12-.07.27-.21.43-1.21,1.43-2.83,2.97-4.85,4.6-1.62,1.3-3.62,2.6-6.01,3.91-.44.26-.81.52-1.09.77-.1.09-.19.14-.27.14s-.17-.05-.26-.16c-.35-.36-.67-.82-.99-1.36Z"/><path d="m821.2,443.24c2.34.67,4.51,1.6,6.51,2.78.12.05.18.12.18.21,0,.03,0,.07-.03.12-.14.36-.3.68-.48.98-.08.1-.15.15-.21.15-.05,0-.1-.02-.18-.07-1.84-1.2-3.78-2.1-5.82-2.68v4.64c0,.51,0,1.22.02,2.15.02,1.17.03,1.81.03,1.93,0,.03,0,.05,0,.07,0,.12-.09.19-.26.19-.14.01-.3.02-.5.02s-.38,0-.52-.02c-.19,0-.28-.09-.28-.27.06-1.15.09-2.5.09-4.06v-8.88c0-1.43-.08-2.49-.22-3.2.79.07,1.34.15,1.65.26.16.03.23.11.23.23,0,.07-.03.19-.09.36-.09.26-.14,1-.14,2.22v2.88Zm4.24-4.68l.71-.52s.08-.05.12-.05c.03,0,.07.02.11.05.82.57,1.57,1.38,2.26,2.42.03.03.04.06.04.09,0,.05-.03.09-.08.13l-.58.49s-.09.05-.13.05c-.05,0-.1-.03-.14-.09-.62-1.05-1.39-1.91-2.31-2.57Zm1.76-1.34l.64-.5s.08-.06.12-.06.06.01.1.04c.95.74,1.71,1.51,2.28,2.33.03.04.04.07.04.1,0,.05-.03.09-.1.15l-.54.48s-.08.06-.11.06c-.05,0-.09-.03-.14-.1-.59-.96-1.35-1.8-2.29-2.5Z"/><path d="m718.36,477.15v-14.32h6.35c1.28,0,2.25.13,2.91.39s1.19.71,1.59,1.36c.4.65.6,1.37.6,2.16,0,1.02-.33,1.87-.99,2.57-.66.7-1.67,1.14-3.05,1.33.5.24.88.48,1.14.71.55.51,1.08,1.14,1.57,1.9l2.49,3.9h-2.38l-1.89-2.98c-.55-.86-1.01-1.52-1.37-1.97-.36-.46-.68-.77-.96-.96s-.57-.31-.86-.38c-.21-.05-.57-.07-1.05-.07h-2.2v6.36h-1.89Zm1.89-8h4.07c.87,0,1.54-.09,2.03-.27s.86-.47,1.11-.86.38-.82.38-1.28c0-.68-.25-1.23-.74-1.67-.49-.44-1.27-.65-2.33-.65h-4.53v4.74Z"/><path d="m739.65,473.81l1.82.22c-.29,1.06-.82,1.88-1.59,2.47-.78.59-1.76.88-2.97.88-1.52,0-2.72-.47-3.61-1.4s-1.33-2.24-1.33-3.93.45-3.1,1.35-4.06,2.06-1.45,3.5-1.45,2.52.47,3.4,1.42,1.32,2.27,1.32,3.98c0,.1,0,.26,0,.47h-7.73c.06,1.14.39,2.01.97,2.62.58.61,1.3.91,2.17.91.64,0,1.19-.17,1.65-.51.46-.34.82-.88,1.08-1.62Zm-5.77-2.84h5.79c-.08-.87-.3-1.53-.66-1.96-.56-.68-1.29-1.02-2.18-1.02-.81,0-1.49.27-2.04.81-.55.54-.85,1.26-.91,2.17Z"/><path d="m750.44,475.87c-.65.55-1.28.94-1.88,1.17-.6.23-1.25.34-1.94.34-1.14,0-2.02-.28-2.63-.83-.61-.56-.92-1.27-.92-2.13,0-.51.12-.97.35-1.39.23-.42.53-.76.91-1.01.37-.25.8-.45,1.26-.58.34-.09.87-.18,1.56-.26,1.42-.17,2.46-.37,3.13-.61,0-.24,0-.39,0-.46,0-.72-.17-1.22-.5-1.51-.45-.4-1.12-.6-2-.6-.83,0-1.44.14-1.83.43-.39.29-.69.8-.87,1.54l-1.72-.23c.16-.74.41-1.33.77-1.78.36-.45.88-.8,1.55-1.04.68-.24,1.46-.37,2.35-.37s1.6.1,2.16.31c.55.21.96.47,1.22.79.26.32.44.71.55,1.2.06.3.09.84.09,1.62v2.34c0,1.63.04,2.67.11,3.1.07.43.22.85.44,1.25h-1.84c-.18-.36-.3-.79-.35-1.28Zm-.15-3.93c-.64.26-1.6.48-2.87.66-.72.1-1.23.22-1.53.35-.3.13-.53.32-.69.57-.16.25-.24.53-.24.83,0,.47.18.86.53,1.17.35.31.87.47,1.56.47s1.28-.15,1.81-.44.91-.7,1.16-1.22c.19-.4.28-.98.28-1.76v-.64Z"/><path d="m761.57,473.35l1.73.22c-.19,1.19-.67,2.12-1.45,2.8-.78.67-1.73,1.01-2.87,1.01-1.42,0-2.56-.46-3.42-1.39-.86-.93-1.29-2.26-1.29-3.99,0-1.12.19-2.1.56-2.94s.94-1.47,1.69-1.89c.76-.42,1.58-.63,2.48-.63,1.13,0,2.05.29,2.76.85.72.57,1.17,1.38,1.38,2.43l-1.71.26c-.16-.7-.45-1.22-.86-1.57-.41-.35-.91-.53-1.5-.53-.89,0-1.61.32-2.16.95-.55.63-.83,1.64-.83,3.01s.27,2.41.8,3.04c.53.63,1.23.95,2.09.95.69,0,1.27-.21,1.73-.63.46-.42.75-1.07.88-1.95Z"/><path d="m768.64,475.57l.25,1.55c-.5.1-.94.16-1.33.16-.64,0-1.13-.1-1.48-.3s-.6-.47-.74-.8c-.14-.33-.21-1.02-.21-2.08v-5.97h-1.29v-1.37h1.29v-2.57l1.75-1.05v3.62h1.77v1.37h-1.77v6.06c0,.5.03.82.09.97.06.14.16.26.3.34.14.08.34.13.6.13.2,0,.45-.02.77-.07Z"/><path d="m775.99,463.18c.95.09,2.32.14,4.12.14h8.32c.75,0,1.25-.04,1.49-.12.13-.05.23-.08.3-.08.08,0,.19.05.3.14.3.26.54.52.73.78.07.08.11.17.11.26,0,.12-.07.23-.21.31-.11.07-.26.23-.44.51-.94,1.42-2.22,2.73-3.82,3.94-.08.06-.16.09-.24.09-.1,0-.2-.04-.27-.11-.27-.21-.62-.38-1.04-.51,1.76-1.12,3.11-2.43,4.06-3.94h-9.14c-1.32,0-2.56.06-3.72.19h-.06c-.15,0-.24-.08-.27-.22-.1-.42-.18-.88-.22-1.38Zm1.46,13.82c2.02-1.05,3.4-2.36,4.14-3.93.66-1.39,1-3.03,1-4.92,0-.57-.06-1.12-.19-1.65.68.05,1.2.14,1.58.27.18.07.27.18.27.32,0,.07-.03.16-.08.26-.1.19-.16.51-.16.98,0,2.02-.38,3.8-1.14,5.32-.77,1.54-2.02,2.85-3.75,3.96-.12.07-.23.11-.33.11-.1,0-.2-.04-.27-.11-.27-.25-.62-.45-1.07-.62Z"/><path d="m795.03,463.93c1.1.1,2.38.16,3.84.16h7.08c.45,0,.78-.06,1.01-.18.07-.05.15-.07.23-.07.1,0,.19.03.28.09.33.23.63.51.9.82.07.09.11.19.11.28,0,.12-.06.23-.17.33-.16.14-.3.36-.44.68-.94,2.48-2.25,4.67-3.93,6.55-1.81,2.03-3.79,3.64-5.94,4.81-.12.08-.23.12-.34.12-.13,0-.24-.05-.33-.16-.28-.27-.63-.5-1.04-.67,1.54-.76,2.85-1.59,3.95-2.48.83-.67,1.67-1.49,2.52-2.46,1.72-1.93,2.97-4.06,3.76-6.4h-7.67c-1.16,0-2.28.04-3.36.13h-.07c-.16,0-.26-.11-.29-.32,0-.05-.02-.27-.05-.64-.03-.27-.04-.47-.05-.6Zm14.86-3.79c.6,0,1.1.22,1.5.66.34.38.52.84.52,1.36,0,.6-.22,1.1-.66,1.5-.38.34-.84.52-1.36.52-.6,0-1.1-.22-1.5-.66-.35-.38-.52-.84-.52-1.36,0-.6.22-1.1.66-1.5.38-.34.84-.52,1.36-.52Zm0,.76c-.38,0-.69.14-.94.41-.21.24-.32.52-.32.85,0,.38.14.69.41.94.24.21.52.32.85.32.38,0,.69-.14.94-.41.21-.24.32-.52.32-.85,0-.38-.14-.69-.41-.94-.24-.21-.52-.32-.85-.32Z"/><path d="m815.51,462.11c.61.07,1.15.18,1.63.32.15.05.22.14.22.28,0,.06-.01.12-.04.2-.14.25-.21.95-.21,2.1v3.38c0,.89.02,1.77.06,2.65,0,.21-.1.31-.29.31h-.94c-.17,0-.25-.08-.25-.23v-.06c.03-1.19.04-2.11.04-2.74v-3.3c0-1.18-.08-2.15-.22-2.9Zm.92,14.73c2.09-.61,3.65-1.53,4.67-2.74,1.07-1.3,1.6-3.09,1.6-5.36v-3.44c0-1.67-.08-2.84-.22-3.51.67.07,1.24.18,1.7.32.14.05.21.13.21.26,0,.07-.02.15-.07.23-.13.27-.2,1.14-.2,2.63v3.38c0,2.6-.58,4.65-1.74,6.12-1.05,1.28-2.51,2.26-4.38,2.94-.09.03-.17.05-.23.05-.1,0-.21-.05-.32-.15-.27-.29-.6-.53-1.01-.74Z"/></g><path d="m659.5,578.17c0-7,5.67-12.67,12.67-12.67h77.67c7,0,12.67,5.67,12.67,12.67v50.67c0,7-5.67,12.67-12.67,12.67h-77.67c-7,0-12.67-5.67-12.67-12.67v-50.67Z" fill="#ed7d31" fill-rule="evenodd" stroke="#ffc000" stroke-miterlimit="8" stroke-width=".67"/><g isolation="isolate"><text transform="translate(678.75 591.46)" font-family="ArialMT, Arial" font-size="14" isolation="isolate"><tspan x="0" y="0">JavaScript </tspan></text><g isolation="isolate"><path d="m692.16,608.7l-2.66-10.02h1.36l1.52,6.57c.16.69.3,1.37.42,2.05.25-1.07.41-1.69.45-1.85l1.91-6.77h1.6l1.44,5.07c.36,1.26.62,2.44.78,3.55.13-.63.29-1.36.5-2.18l1.57-6.44h1.33l-2.75,10.02h-1.28l-2.11-7.64c-.18-.64-.28-1.03-.31-1.18-.11.46-.2.85-.29,1.18l-2.13,7.64h-1.35Z"/><path d="m708.18,606.36l1.27.16c-.2.74-.57,1.32-1.11,1.73-.54.41-1.24.62-2.08.62-1.06,0-1.9-.33-2.53-.98-.62-.65-.93-1.57-.93-2.75s.31-2.17.94-2.84,1.44-1.01,2.45-1.01,1.76.33,2.38.99.92,1.59.92,2.79c0,.07,0,.18,0,.33h-5.41c.04.8.27,1.41.68,1.83.41.42.91.64,1.52.64.45,0,.84-.12,1.16-.36.32-.24.57-.62.76-1.13Zm-4.04-1.99h4.05c-.05-.61-.21-1.07-.46-1.37-.39-.47-.9-.71-1.52-.71-.57,0-1.04.19-1.43.57-.38.38-.6.88-.64,1.52Z"/><path d="m712.13,608.7h-1.14v-10.02h1.23v3.58c.52-.65,1.18-.98,1.99-.98.45,0,.87.09,1.27.27.4.18.73.43.98.76.26.33.46.72.61,1.18.15.46.22.95.22,1.48,0,1.24-.31,2.21-.92,2.88s-1.35,1.02-2.21,1.02-1.53-.36-2.02-1.07v.91Zm-.01-3.68c0,.87.12,1.5.36,1.89.39.63.91.95,1.57.95.54,0,1-.23,1.39-.7.39-.47.59-1.16.59-2.09s-.19-1.65-.56-2.1-.83-.68-1.36-.68-1,.23-1.39.7c-.39.47-.59,1.14-.59,2.03Z"/><path d="m734.06,597.98l-.03,2.19v8.09c.01.44-.12.76-.4.96-.25.19-.83.28-1.74.28-.15,0-.24-.01-.27-.04s-.05-.11-.08-.24c-.04-.23-.13-.45-.25-.64.42.04.89.05,1.39.05.33,0,.49-.19.49-.56v-2.95h-3.92v1.67l.03,2.32c0,.08-.04.12-.12.12h-.67c-.07,0-.11-.04-.11-.12l.03-2.32v-1.67h-3.75c-.1,1.02-.28,1.87-.55,2.56-.2.51-.49,1.05-.88,1.61-.08.11-.14.17-.16.17-.04,0-.1-.05-.2-.14-.18-.14-.38-.26-.59-.35.63-.8,1.06-1.68,1.29-2.65.23-.98.35-2.33.35-4.06v-2.1l-.03-2.19c0-.08.04-.12.11-.12l1.99.03h5.95l2-.03c.08,0,.12.04.12.12Zm-5.64,6.39v-2.47h-3.64v.38c0,.61-.02,1.31-.06,2.1h3.7Zm0-3.23v-2.47h-3.64v2.47h3.64Zm4.76,0v-2.47h-3.92v2.47h3.92Zm0,3.23v-2.47h-3.92v2.47h3.92Z"/><path d="m683.42,618.16c.67.06,1.45.1,2.32.1h5.01c.33,0,.56-.03.69-.1.09-.05.15-.07.2-.07.05,0,.11.03.18.08.22.17.4.33.52.5.06.09.1.16.1.21,0,.05-.04.11-.12.17-.1.07-.21.23-.32.48-.67,1.52-1.51,2.8-2.51,3.83-.93.97-2.06,1.79-3.4,2.48-.08.04-.14.06-.2.06-.06,0-.12-.03-.18-.09-.21-.18-.47-.32-.79-.44,3.04-1.46,5.07-3.53,6.09-6.23h-5.3c-.83,0-1.49.03-1.98.08h-.03c-.09,0-.15-.06-.18-.18-.05-.28-.08-.57-.1-.88Zm1.19-2.93c.63.06,1.39.1,2.28.1h2.17c.71,0,1.43-.02,2.17-.07.1,0,.15.05.15.16,0,.09.01.19.01.31s0,.23-.01.32c0,.12-.04.18-.13.18h-.05l-2.08-.03h-2.28c-.78,0-1.45.02-1.99.05h-.03c-.08,0-.12-.07-.14-.2-.04-.35-.07-.62-.07-.83Z"/><path d="m701.28,618.09v5.09c0,.79.01,1.64.04,2.54,0,.01,0,.03,0,.04,0,.08-.05.12-.14.12-.13,0-.27.01-.41.01s-.27,0-.4-.01c-.09,0-.14-.05-.14-.16.04-1.1.05-1.93.05-2.5v-4.25c-1.31,1.16-2.78,2.21-4.4,3.16-.05.03-.1.04-.14.04-.06,0-.13-.03-.19-.1-.15-.15-.38-.29-.7-.44,1.67-.92,3.12-1.9,4.35-2.95,1.1-.94,2.01-1.85,2.71-2.71.53-.64.85-1.16.96-1.58.46.24.79.45.96.63.06.06.1.12.1.19,0,.09-.05.16-.15.21-.17.08-.43.33-.78.74-.57.69-1.15,1.33-1.75,1.93Z"/><path d="m707.09,616.25c.77.07,1.67.11,2.69.11h4.96c.31,0,.55-.04.7-.12.05-.03.11-.05.16-.05.07,0,.13.02.2.06.23.16.44.36.63.57.05.06.08.13.08.2,0,.09-.04.16-.12.23-.11.1-.21.25-.31.48-.66,1.74-1.57,3.27-2.75,4.59-1.27,1.42-2.65,2.54-4.16,3.37-.08.05-.16.08-.24.08-.09,0-.17-.04-.23-.11-.2-.19-.44-.35-.73-.47,1.08-.53,2-1.11,2.76-1.74.58-.47,1.17-1.04,1.76-1.72,1.2-1.35,2.08-2.84,2.63-4.48h-5.37c-.81,0-1.59.03-2.35.09h-.05c-.11,0-.18-.08-.21-.23,0-.04-.01-.19-.03-.45-.02-.19-.03-.33-.03-.42Zm8.48-1.41l.49-.36s.05-.03.08-.03c.02,0,.05.01.08.03.57.41,1.1.97,1.58,1.7.02.02.03.05.03.07,0,.03-.02.06-.05.09l-.41.33s-.05.03-.08.03c-.04,0-.07-.02-.1-.06-.44-.73-.98-1.33-1.63-1.8Zm1.23-.94l.45-.35s.06-.04.09-.04c.02,0,.04,0,.06.03.67.51,1.2,1.06,1.6,1.64.01.02.02.05.02.07,0,.03-.02.06-.06.1l-.38.33s-.05.04-.08.04c-.03,0-.06-.02-.09-.07-.41-.67-.95-1.25-1.61-1.75Z"/><path d="m720.9,618.16c.67.06,1.45.1,2.32.1h5.01c.33,0,.56-.03.69-.1.09-.05.15-.07.2-.07.05,0,.11.03.18.08.22.17.4.33.52.5.06.09.1.16.1.21,0,.05-.04.11-.12.17-.1.07-.21.23-.32.48-.67,1.52-1.51,2.8-2.51,3.83-.93.97-2.06,1.79-3.4,2.48-.08.04-.14.06-.2.06-.06,0-.12-.03-.18-.09-.21-.18-.47-.32-.79-.44,3.04-1.46,5.07-3.53,6.09-6.23h-5.3c-.83,0-1.49.03-1.98.08h-.03c-.09,0-.15-.06-.18-.18-.05-.28-.08-.57-.1-.88Zm1.19-2.93c.63.06,1.39.1,2.28.1h2.17c.71,0,1.43-.02,2.17-.07.1,0,.15.05.15.16,0,.09.01.19.01.31s0,.23-.01.32c0,.12-.04.18-.13.18h-.05l-2.08-.03h-2.28c-.78,0-1.45.02-1.99.05h-.03c-.08,0-.12-.07-.14-.2-.04-.35-.07-.62-.07-.83Z"/><path d="m734.17,614.97c.42.05.8.12,1.14.23.11.03.16.1.16.2,0,.04,0,.09-.03.14-.1.17-.14.66-.14,1.47v2.37c0,.62.01,1.24.04,1.85,0,.15-.07.22-.21.22h-.66c-.12,0-.18-.05-.18-.16v-.04c.02-.83.03-1.47.03-1.92v-2.31c0-.83-.05-1.5-.16-2.03Zm.64,10.31c1.46-.43,2.55-1.07,3.27-1.92.75-.91,1.12-2.16,1.12-3.75v-2.41c0-1.17-.05-1.99-.16-2.45.47.05.87.12,1.19.23.1.03.14.09.14.18,0,.05-.02.1-.05.16-.09.19-.14.8-.14,1.84v2.37c0,1.82-.41,3.25-1.22,4.29-.73.9-1.76,1.58-3.07,2.06-.06.02-.12.03-.16.03-.07,0-.15-.03-.23-.1-.19-.2-.42-.37-.7-.52Z"/></g></g><path d="m780.5,576.17c0-7,5.67-12.67,12.67-12.67h66.67c7,0,12.67,5.67,12.67,12.67v50.67c0,7-5.67,12.67-12.67,12.67h-66.67c-7,0-12.67-5.67-12.67-12.67v-50.67Z" fill="#ed7d31" fill-rule="evenodd" stroke="#ffc000" stroke-miterlimit="8" stroke-width=".67"/><g isolation="isolate"><text transform="translate(783.69 590.01)" font-size="14" isolation="isolate"><tspan font-family="YuGothic-Medium, &apos;Yu Gothic&apos;" font-weight="500"><tspan x="0" y="0" letter-spacing="-.07em">ア</tspan><tspan x="12.97" y="0" letter-spacing="-.05em">ダ</tspan><tspan x="26.27" y="0" letter-spacing="-.08em">プ</tspan><tspan x="39.15" y="0" letter-spacing="-.19em">テ</tspan><tspan x="50.49" y="0" letter-spacing="-.21em">ィ</tspan><tspan x="61.58" y="0" letter-spacing="-.04em">ブ</tspan><tspan x="74.95" y="0" letter-spacing="-.03em">フ</tspan></tspan><tspan x="4.62" y="16.8" font-family="YuGothic-Medium, &apos;Yu Gothic&apos;" font-weight="500" letter-spacing="-.14em">ォ</tspan><tspan x="16.66" y="16.8" font-family="YuGothic-Medium, &apos;Yu Gothic&apos;" font-weight="500" letter-spacing="-.12em">ー</tspan><tspan x="29.04" y="16.8" font-family="YuGothic-Medium, &apos;Yu Gothic&apos;" font-weight="500" letter-spacing="-.04em">ム</tspan><tspan x="42.48" y="16.8" font-family="YuGothic-Regular, &apos;Yu Gothic&apos;"> </tspan><tspan x="46.47" y="16.8" font-family="ArialMT, Arial">React </tspan><tspan font-family="YuGothic-Medium, &apos;Yu Gothic&apos;" font-weight="500"><tspan x="12.33" y="33.6" letter-spacing="-.14em">レ</tspan><tspan x="24.41" y="33.6" letter-spacing="-.09em">ン</tspan><tspan x="37.11" y="33.6" letter-spacing="-.08em">ダ</tspan><tspan x="49.92" y="33.6" letter-spacing="-.08em">ラ</tspan><tspan x="62.75" y="33.6" letter-spacing="-.03em">ー</tspan><tspan x="76.34" y="33.6" xml:space="preserve">   </tspan></tspan></text></g><path d="m710.83,299.5v114.93h-.67v-114.93h.67Zm3.67,113.6l-4,8-4-8h8Z"/><path d="m827.83,421.64v-120.47s-.67,0-.67,0v120.47s.67,0,.67,0Zm3.67-119.14l-4-8-4,8h8Z"/><path d="m643.5,355c0-1.93,1.57-3.5,3.5-3.5h112c1.93,0,3.5,1.57,3.5,3.5v14c0,1.93-1.57,3.5-3.5,3.5h-112c-1.93,0-3.5-1.57-3.5-3.5v-14Z" fill="#4472c4" fill-rule="evenodd" stroke="#2f528f" stroke-miterlimit="8" stroke-width="1.33"/><text transform="translate(659.15 366.56)" fill="#fff" font-family="YuGothic-Medium, &apos;Yu Gothic&apos;" font-size="13" font-weight="500" isolation="isolate"><tspan x="0" y="0" letter-spacing="-.15em">フ</tspan><tspan x="11.08" y="0" letter-spacing="-.14em">ォ</tspan><tspan x="22.25" y="0" letter-spacing="-.12em">ー</tspan><tspan x="33.76" y="0" letter-spacing="-.04em">ム</tspan><tspan x="46.2" y="0" letter-spacing="0em">の</tspan><tspan x="59.15" y="0">取得</tspan></text><path d="m780.5,352.67c0-2.3,1.87-4.17,4.17-4.17h88.67c2.3,0,4.17,1.87,4.17,4.17v16.67c0,2.3-1.86,4.17-4.17,4.17h-88.67c-2.3,0-4.17-1.86-4.17-4.17v-16.67Z" fill="#4472c4" fill-rule="evenodd" stroke="#2f528f" stroke-miterlimit="8" stroke-width="1.33"/><text transform="translate(784.18 365.56)" fill="#fff" font-family="YuGothic-Medium, &apos;Yu Gothic&apos;" font-size="13" font-weight="500" isolation="isolate"><tspan x="0" y="0" letter-spacing="-.15em">フ</tspan><tspan x="11.08" y="0" letter-spacing="-.14em">ォ</tspan><tspan x="22.25" y="0" letter-spacing="-.12em">ー</tspan><tspan x="33.76" y="0" letter-spacing="-.04em">ム</tspan><tspan x="46.2" y="0" letter-spacing="0em">の</tspan><tspan x="59.15" y="0">送信</tspan></text><path d="m287.5,127.83c0-18.41,14.92-33.33,33.33-33.33h164.33c18.41,0,33.33,14.92,33.33,33.33v133.33c0,18.41-14.92,33.33-33.33,33.33h-164.33c-18.41,0-33.33-14.92-33.33-33.33V127.83Z" fill="url(#uuid-0392a3e0-4fef-477a-b587-f4ce44528526)" fill-rule="evenodd" stroke="#ffc000" stroke-miterlimit="8" stroke-width=".67"/><text transform="translate(299.74 134)" font-family="ArialMT, Arial" font-size="20" isolation="isolate"><tspan x="0" y="0" letter-spacing="-.02em">V</tspan><tspan x="12.98" y="0">isual Studio Code IDE</tspan></text><path d="m378.5,172.33c0-10.95,8.88-19.83,19.83-19.83h88.33c10.95,0,19.83,8.88,19.83,19.83v79.33c0,10.95-8.88,19.83-19.83,19.83h-88.33c-10.95,0-19.83-8.88-19.83-19.83v-79.33Z" fill="#ed7d31" fill-rule="evenodd" stroke="#ffc000" stroke-miterlimit="8" stroke-width=".67"/><g isolation="isolate"><text transform="translate(397.02 178)" font-family="YuGothic-Bold, &apos;Yu Gothic&apos;" font-size="16" font-weight="700" isolation="isolate"><tspan x="0" y="0" letter-spacing="-.06em">ア</tspan><tspan x="15.09" y="0" letter-spacing="-.09em">ー</tspan><tspan x="29.66" y="0" letter-spacing="-.12em">キ</tspan><tspan x="43.74" y="0" letter-spacing="-.15em">タ</tspan><tspan x="57.29" y="0" letter-spacing="-.14em">イ</tspan><tspan x="71.11" y="0" letter-spacing=".03em">プ</tspan><tspan x="2.42" y="19.2" letter-spacing="-.06em">プ</tspan><tspan x="17.47" y="19.2" letter-spacing="-.08em">ロ</tspan><tspan x="32.18" y="19.2" letter-spacing="-.14em">ジ</tspan><tspan x="45.9" y="19.2" letter-spacing="-.18em">ェ</tspan><tspan x="58.95" y="19.2" letter-spacing="-.21em">ク</tspan><tspan x="71.63" y="19.2" letter-spacing="-.13em">ト</tspan><tspan x="85.51" y="19.2"> </tspan></text></g><path d="m296.5,193.67c0-5.06,4.1-9.17,9.17-9.17h57.67c5.06,0,9.17,4.1,9.17,9.17v36.67c0,5.06-4.1,9.17-9.17,9.17h-57.67c-5.06,0-9.17-4.1-9.17-9.17v-36.67Z" fill="#ed7d31" fill-rule="evenodd" stroke="#ffc000" stroke-miterlimit="8" stroke-width=".67"/><g isolation="isolate"><text transform="translate(305.5 200)" font-family="YuGothic-Medium, &apos;Yu Gothic&apos;" font-size="13" font-weight="500" isolation="isolate"><tspan x="0" y="0" letter-spacing="-.13em">ヘ</tspan><tspan x="11.31" y="0" letter-spacing="-.19em">ッ</tspan><tspan x="21.87" y="0" letter-spacing="-.11em">ド</tspan><tspan x="33.4" y="0" letter-spacing="-.11em">レ</tspan><tspan x="44.98" y="0" letter-spacing="-.03em">ス</tspan><tspan x="-.97" y="15.6" letter-spacing="-.15em">フ</tspan><tspan x="10.1" y="15.6" letter-spacing="-.14em">ォ</tspan><tspan x="21.28" y="15.6" letter-spacing="-.12em">ー</tspan><tspan x="32.78" y="15.6" letter-spacing="-.08em">ム</tspan><tspan x="44.72" y="15.6" letter-spacing=".03em">プ</tspan><tspan x="5.65" y="31.2" letter-spacing="-.12em">ラ</tspan><tspan x="17.05" y="31.2" letter-spacing="-.15em">グ</tspan><tspan x="28.17" y="31.2" letter-spacing="-.18em">イ</tspan><tspan x="38.88" y="31.2" letter-spacing="-.04em">ン</tspan><tspan x="51.35" y="31.2" xml:space="preserve">  </tspan></text></g><path d="m519.5,208.17h115.98v.67h-115.98v-.67Zm114.65-3.67l8,4-8,4v-8Z"/><path d="m531.5,197.83c0-2.94,2.39-5.33,5.33-5.33h87.33c2.95,0,5.33,2.39,5.33,5.33v21.33c0,2.94-2.39,5.33-5.33,5.33h-87.33c-2.95,0-5.33-2.39-5.33-5.33v-21.33Z" fill="#4472c4" fill-rule="evenodd" stroke="#2f528f" stroke-miterlimit="8" stroke-width="1.33"/><g isolation="isolate"><text transform="translate(543.4 206.28)" fill="#fff" font-family="YuGothic-Medium, &apos;Yu Gothic&apos;" font-size="13" font-weight="500" isolation="isolate"><tspan x="0" y="0" letter-spacing="-.09em">ビ</tspan><tspan x="11.79" y="0" letter-spacing="-.08em">ル</tspan><tspan x="23.73" y="0" letter-spacing="-.06em">ド</tspan><tspan x="35.98" y="0" letter-spacing="-.06em">お</tspan><tspan x="48.17" y="0" letter-spacing="-.07em">よ</tspan><tspan x="60.22" y="0" letter-spacing=".01em">び</tspan><tspan x="12.92" y="15.6" letter-spacing="-.05em">デ</tspan><tspan x="25.33" y="15.6" letter-spacing="-.05em">プ</tspan><tspan x="37.72" y="15.6" letter-spacing="-.11em">ロ</tspan><tspan x="49.28" y="15.6" letter-spacing="-.1em">イ</tspan><tspan x="61.01" y="15.6"> </tspan></text></g><path d="m383.5,210.5c0-3.87,3.13-7,7-7h42c3.87,0,7,3.13,7,7v28c0,3.87-3.13,7-7,7h-42c-3.87,0-7-3.13-7-7v-28Z" fill="#bf9000" fill-rule="evenodd" stroke="#ffc000" stroke-miterlimit="8" stroke-width=".67"/><g isolation="isolate"><text transform="translate(392.12 222.49)" font-family="YuGothic-Bold, &apos;Yu Gothic&apos;" font-size="11" font-weight="700" isolation="isolate"><tspan x="0" y="0" letter-spacing="-.14em">フ</tspan><tspan x="9.42" y="0" letter-spacing="-.15em">ォ</tspan><tspan x="18.73" y="0" letter-spacing="-.13em">ー</tspan><tspan x="28.33" y="0" letter-spacing="-.04em">ム</tspan><tspan x="38.92" y="0"> </tspan></text><text transform="translate(398.73 235.49)" font-family="Arial-BoldMT, Arial" font-size="11" font-weight="700" isolation="isolate"><tspan x="0" y="0">JSON</tspan></text></g><path d="m443.5,211.33c0-3.77,3.06-6.83,6.83-6.83h46.33c3.77,0,6.83,3.06,6.83,6.83v27.33c0,3.77-3.06,6.83-6.83,6.83h-46.33c-3.77,0-6.83-3.06-6.83-6.83v-27.33Z" fill="#bf9000" fill-rule="evenodd" stroke="#ffc000" stroke-miterlimit="8" stroke-width=".67"/><g isolation="isolate"><text transform="translate(447.84 228.99)" font-family="YuGothic-Bold, &apos;Yu Gothic&apos;" font-size="11" font-weight="700" isolation="isolate"><tspan x="0" y="0">顧</tspan><tspan x="11" y="0" letter-spacing="-.07em">客</tspan><tspan x="21.22" y="0" letter-spacing="-.08em">コ</tspan><tspan x="31.29" y="0" letter-spacing="-.16em">ー</tspan><tspan x="40.5" y="0" letter-spacing="-.08em">ド</tspan><tspan x="50.57" y="0"> </tspan></text></g><path d="m721.5,209.5c0-4.42,3.58-8,8-8h59c4.42,0,8,3.58,8,8v32c0,4.42-3.58,8-8,8h-59c-4.42,0-8-3.58-8-8v-32Z" fill="#bf9000" fill-rule="evenodd" stroke="#ffc000" stroke-miterlimit="8" stroke-width=".67"/><g isolation="isolate"><text transform="translate(733.4 221)" font-family="YuGothic-Regular, &apos;Yu Gothic&apos;" font-size="13" isolation="isolate"><tspan x="0" y="0" letter-spacing="-.15em">フ</tspan><tspan x="11.11" y="0" letter-spacing="-.14em">ォ</tspan><tspan x="22.27" y="0" letter-spacing="-.11em">ー</tspan><tspan x="33.85" y="0" letter-spacing="-.04em">ム</tspan><tspan x="46.31" y="0"> </tspan></text><text transform="translate(741.79 237)" font-family="ArialMT, Arial" font-size="13" isolation="isolate"><tspan x="0" y="0">JSON</tspan></text></g><path d="m717.5,495.17c0-5.34,4.33-9.67,9.67-9.67h90.67c5.34,0,9.67,4.33,9.67,9.67v38.67c0,5.34-4.33,9.67-9.67,9.67h-90.67c-5.34,0-9.67-4.33-9.67-9.67v-38.67Z" fill="#bf9000" fill-rule="evenodd" stroke="#ffc000" stroke-miterlimit="8" stroke-width=".67"/><g isolation="isolate"><text transform="translate(722.32 509)" font-family="YuGothic-Medium, &apos;Yu Gothic&apos;" font-size="16" font-weight="500" isolation="isolate"><tspan x="0" y="0" letter-spacing="-.14em">レ</tspan><tspan x="13.8" y="0" letter-spacing="-.09em">ン</tspan><tspan x="28.32" y="0" letter-spacing="-.12em">ダ</tspan><tspan x="42.48" y="0" letter-spacing="-.17em">リ</tspan><tspan x="55.82" y="0" letter-spacing="-.11em">ン</tspan><tspan x="70.09" y="0" letter-spacing="-.04em">グ</tspan><tspan x="85.39" y="0" letter-spacing="-.11em">さ</tspan><tspan x="6.42" y="19.2" letter-spacing="0em">れ</tspan><tspan x="22.43" y="19.2" letter-spacing="-.09em">た</tspan><tspan x="36.98" y="19.2" letter-spacing="-.15em">フ</tspan><tspan x="50.61" y="19.2" letter-spacing="-.14em">ォ</tspan><tspan x="64.37" y="19.2" letter-spacing="-.12em">ー</tspan><tspan x="78.53" y="19.2" letter-spacing="-.04em">ム</tspan><tspan x="93.89" y="19.2"> </tspan></text></g><path d="m387.5,346.5c0-3.87,3.13-7,7-7h42c3.87,0,7,3.13,7,7v28c0,3.87-3.13,7-7,7h-42c-3.87,0-7-3.13-7-7v-28Z" fill="#bf9000" fill-rule="evenodd" stroke="#ffc000" stroke-miterlimit="8" stroke-width=".67"/><g isolation="isolate"><text transform="translate(390.99 356)" font-family="YuGothic-Medium, &apos;Yu Gothic&apos;" font-size="13" font-weight="500" isolation="isolate"><tspan x="0" y="0" letter-spacing="-.15em">フ</tspan><tspan x="11.08" y="0" letter-spacing="-.14em">ォ</tspan><tspan x="22.25" y="0" letter-spacing="-.12em">ー</tspan><tspan x="33.76" y="0" letter-spacing="-.04em">ム</tspan><tspan x="46.24" y="0"> </tspan></text><text transform="translate(399.34 372)" font-family="ArialMT, Arial" font-size="13" isolation="isolate"><tspan x="0" y="0">JSON</tspan></text></g><path d="m443.5,360.55h114.96v-106.05l-.33.33h69.55v-.67h-69.89v106.05l.33-.33h-114.62v.67Zm182.84-102.05l8-4-8-4v8Z"/><path d="m518.5,299.83c0-2.95,2.39-5.33,5.33-5.33h87.33c2.95,0,5.33,2.39,5.33,5.33v21.33c0,2.95-2.39,5.33-5.33,5.33h-87.33c-2.95,0-5.33-2.39-5.33-5.33v-21.33Z" fill="#4472c4" fill-rule="evenodd" stroke="#2f528f" stroke-miterlimit="8" stroke-width="1.33"/><g isolation="isolate"><text transform="translate(537.37 308.47)" fill="#fff" font-family="YuGothic-Medium, &apos;Yu Gothic&apos;" font-size="13" font-weight="500" isolation="isolate"><tspan x="0" y="0">直</tspan><tspan x="13" y="0" letter-spacing="-.06em">接</tspan><tspan x="25.27" y="0" letter-spacing="-.17em">ア</tspan><tspan x="36.07" y="0" letter-spacing="-.13em">ッ</tspan><tspan x="47.44" y="0" letter-spacing=".03em">プ</tspan><tspan x="12.13" y="15.6" letter-spacing="-.06em">ロ</tspan><tspan x="24.36" y="15.6" letter-spacing="-.13em">ー</tspan><tspan x="35.64" y="15.6" letter-spacing="-.07em">ド</tspan><tspan x="47.7" y="15.6"> </tspan></text></g></g></svg>